<?xml version="1.0" encoding="UTF-8" standalone="no"?>
<!-- Created with Inkscape (http://www.inkscape.org/) -->

<svg
   xmlns:dc="http://purl.org/dc/elements/1.1/"
   xmlns:cc="http://creativecommons.org/ns#"
   xmlns:rdf="http://www.w3.org/1999/02/22-rdf-syntax-ns#"
   xmlns:svg="http://www.w3.org/2000/svg"
   xmlns="http://www.w3.org/2000/svg"
   xmlns:sodipodi="http://sodipodi.sourceforge.net/DTD/sodipodi-0.dtd"
   xmlns:inkscape="http://www.inkscape.org/namespaces/inkscape"
   width="512"
   height="320"
   viewBox="0 0 135.46666 84.666669"
   version="1.1"
   id="svg8"
   inkscape:version="0.92.4 (5da689c313, 2019-01-14)"
   sodipodi:docname="hello_arcajs.svg">
  <defs
     id="defs2" />
  <sodipodi:namedview
     id="base"
     pagecolor="#7f7f7f"
     bordercolor="#666666"
     borderopacity="1.0"
     inkscape:pageopacity="0"
     inkscape:pageshadow="2"
     inkscape:zoom="1.4"
     inkscape:cx="270.20101"
     inkscape:cy="114.42251"
     inkscape:document-units="px"
     inkscape:current-layer="g4544"
     showgrid="false"
     units="px"
     inkscape:window-width="1434"
     inkscape:window-height="779"
     inkscape:window-x="44"
     inkscape:window-y="190"
     inkscape:window-maximized="0" />
  <metadata
     id="metadata5">
    <rdf:RDF>
      <cc:Work
         rdf:about="">
        <dc:format>image/svg+xml</dc:format>
        <dc:type
           rdf:resource="http://purl.org/dc/dcmitype/StillImage" />
        <dc:title />
      </cc:Work>
    </rdf:RDF>
  </metadata>
  <g
     inkscape:label="Ebene 1"
     inkscape:groupmode="layer"
     id="layer1"
     transform="translate(0,-212.33333)">
    <path
       inkscape:connector-curvature="0"
       id="path843"
       style="font-style:normal;font-variant:normal;font-weight:normal;font-stretch:normal;font-size:51.31518555px;line-height:1.25;font-family:Impact;-inkscape-font-specification:Impact;letter-spacing:0px;word-spacing:0px;opacity:1;fill:#ffffff;fill-opacity:1;stroke:none;stroke-width:4.27626514"
       d="M 11.450918,270.1376 H 1.9546022 v -2.23 c 0,-2.57245 0.2923228,-4.55189 0.8769685,-5.93833 0.6013498,-1.40315 1.7956974,-2.63926 3.5830427,-3.70833 1.7873453,-1.06907 4.1092236,-1.6036 6.9656356,-1.6036 3.424353,0 6.005146,0.6097 7.742379,1.82911 1.737233,1.2027 2.781243,2.68937 3.13203,4.46001 0.350788,1.75394 0.526182,5.37874 0.526182,10.87441 v 16.68746 h -9.847104 v -2.95664 c -0.618054,1.18599 -1.419854,2.07967 -2.405399,2.68102 -0.968841,0.58465 -2.129781,0.87697 -3.4828181,0.87697 -1.7706411,0 -3.3992969,-0.49277 -4.8859673,-1.47832 -1.4699663,-1.00225 -2.2049494,-3.18215 -2.2049494,-6.53968 v -2.73113 c 0,-2.48892 0.3925478,-4.18439 1.1776434,-5.08642 0.7850956,-0.90203 2.7311305,-1.95439 5.8381046,-3.15709 3.3241288,-1.30292 5.1031218,-2.17989 5.3369798,-2.6309 0.233858,-0.45101 0.350787,-1.36974 0.350787,-2.75619 0,-1.73723 -0.133633,-2.86476 -0.4009,-3.38259 -0.250562,-0.53453 -0.676518,-0.8018 -1.277868,-0.8018 -0.684871,0 -1.110827,0.22551 -1.277868,0.67652 -0.167042,0.43431 -0.529081,1.59958 -0.250563,3.4327 z m 3.207199,4.56024 c -1.620303,1.18599 -2.564088,2.17989 -2.831355,2.98169 -0.250563,0.8018 -0.375844,1.95439 -0.375844,3.45776 0,1.72053 0.108577,2.83136 0.325731,3.33248 0.233859,0.50113 0.684871,0.75169 1.353038,0.75169 0.634758,0 1.04401,-0.1921 1.227755,-0.57629 0.20045,-0.4009 0.300675,-1.43656 0.300675,-3.10698 z"
       sodipodi:nodetypes="ccscssccsccccscssscsscscscccscscsc" />
    <path
       inkscape:connector-curvature="0"
       id="path845"
       style="font-style:normal;font-variant:normal;font-weight:normal;font-stretch:normal;font-size:51.31518555px;line-height:1.25;font-family:Impact;-inkscape-font-specification:Impact;letter-spacing:0px;word-spacing:0px;opacity:1;fill:#ffffff;fill-opacity:1;stroke:none;stroke-width:4.27626514"
       d="m 38.38638,257.25869 -0.4009,4.35979 c 1.469967,-3.12368 3.599747,-4.77739 6.389342,-4.96114 v 11.70127 c -1.854162,0 -3.215551,0.25056 -4.084167,0.75169 -0.868617,0.50112 -1.40315,1.20269 -1.6036,2.10472 -0.20045,0.88532 -0.430505,2.94255 -0.300675,6.16384 v 13.12947 H 28.263658 v -33.24964 z"
       sodipodi:nodetypes="ccccccscccc" />
    <path
       inkscape:connector-curvature="0"
       id="path847"
       style="font-style:normal;font-variant:normal;font-weight:normal;font-stretch:normal;font-size:51.31518555px;line-height:1.25;font-family:Impact;-inkscape-font-specification:Impact;letter-spacing:0px;word-spacing:0px;opacity:1;fill:#ffffff;fill-opacity:1;stroke:none;stroke-width:4.27626514"
       d="m 68.980051,269.81187 h -9.546429 v -3.8336 c 0,-1.33633 -0.108577,-2.23836 -0.325731,-2.70608 -0.217154,-0.48442 -0.618054,-0.72663 -1.2027,-0.72663 -0.584645,0 -0.977193,0.2088 -1.177643,0.62641 -0.20045,0.4176 -0.300675,1.35303 -0.300675,2.8063 v 15.6852 c 0,1.186 0.150337,2.07967 0.451012,2.68102 0.300675,0.58465 0.743336,0.87697 1.327981,0.87697 0.684871,0 1.144235,-0.30903 1.378094,-0.92708 0.250562,-0.61805 0.147894,-1.80251 0.375843,-3.50788 v -3.95888 h 9.020248 c -0.01671,2.65596 -0.116932,4.65211 -0.300675,5.98844 -0.167042,1.31963 -0.726632,2.68102 -1.678769,4.08417 -0.935433,1.38645 -2.163188,2.43881 -3.683267,3.15708 -1.520079,0.70158 -3.399297,1.05237 -5.637655,1.05237 -2.856411,0 -5.119825,-0.48442 -6.790242,-1.45327 -1.670416,-0.98554 -2.856411,-2.35528 -3.557986,-4.10922 -0.684871,-1.77064 -1.027306,-4.27626 -1.027306,-7.51687 v -9.44621 c 0,-2.823 0.283971,-4.95278 0.851912,-6.38934 0.567941,-1.43655 1.778993,-2.71442 3.633155,-3.8336 1.854162,-1.13589 4.109224,-1.70383 6.765186,-1.70383 2.639257,0 4.894319,0.55959 6.765185,1.67877 1.870867,1.11918 3.115327,2.53068 3.733381,4.23451 0.618054,1.70382 0.927081,4.11757 0.927081,7.24125 z"
       sodipodi:nodetypes="ccscscsscscscccccsccssccsscc" />
    <path
       inkscape:connector-curvature="0"
       id="path849"
       style="font-style:normal;font-variant:normal;font-weight:normal;font-stretch:normal;font-size:51.31518555px;line-height:1.25;font-family:Impact;-inkscape-font-specification:Impact;letter-spacing:0px;word-spacing:0px;opacity:1;fill:#ffffff;fill-opacity:1;stroke:none;stroke-width:4.27626514"
       d="m 81.007048,270.1376 h -9.496316 v -2.23 c 0,-2.57245 0.292323,-4.55189 0.876968,-5.93833 0.60135,-1.40315 1.795698,-2.63926 3.583043,-3.70833 1.787345,-1.06907 4.109224,-1.6036 6.965635,-1.6036 3.424353,0 6.005146,0.6097 7.742379,1.82911 1.737233,1.2027 2.781244,2.68937 3.132031,4.46001 0.350787,1.75394 0.351999,5.3815 0.526181,10.87441 v 16.68746 h -9.847104 v -2.95664 c -0.618054,1.18599 -1.419854,2.07967 -2.405399,2.68102 -0.968841,0.58465 -2.129781,0.87697 -3.482818,0.87697 -1.770641,0 -3.399296,-0.49277 -4.885967,-1.47832 -1.469966,-1.00225 -2.204949,-3.18215 -2.204949,-6.53968 v -2.73113 c 0,-2.48892 0.392548,-4.18439 1.177643,-5.08642 0.785095,-0.90203 2.73113,-1.95439 5.838105,-3.15709 3.324128,-1.30292 5.103121,-2.17989 5.336979,-2.6309 0.233859,-0.45101 0.350788,-1.36974 0.350788,-2.75619 0,-1.73723 -0.133633,-2.86476 -0.4009,-3.38259 -0.250563,-0.53453 -0.676519,-0.8018 -1.277868,-0.8018 -0.684871,0 -1.110827,0.22551 -1.277869,0.67652 -0.167041,0.43431 -0.52908,1.59958 -0.250562,3.4327 z m 3.207199,4.56024 c -1.620304,1.18599 -2.564089,2.17989 -2.831356,2.98169 -0.250562,0.8018 -0.375843,1.95439 -0.375843,3.45776 0,1.72053 0.108577,2.83136 0.325731,3.33248 0.233858,0.50113 0.68487,0.75169 1.353037,0.75169 0.634758,0 1.04401,-0.1921 1.227756,-0.57629 0.20045,-0.4009 0.300675,-1.43656 0.300675,-3.10698 z"
       sodipodi:nodetypes="ccscssccsccccscsssccscscscccscscsc" />
    <g
       id="g4544">
      <path
         sodipodi:nodetypes="ccccccscccscccscc"
         d="m 108.54386,249.94227 v 5.28687 H 98.120466 v -5.28687 z m 0,7.31642 v 26.30906 c 0,3.09027 -0.0668,5.18664 -0.20045,6.28911 -0.11693,1.08577 -0.50112,2.03791 -1.15258,2.85642 -0.63476,0.83521 -1.49503,1.45326 -2.5808,1.85416 -1.06907,0.4009 -2.68102,0.60135 -4.835852,0.60135 h -3.908773 v -5.31193 c 1.202699,0 1.879218,-0.13363 2.029555,-0.40089 0.150337,-0.26727 0.225506,-1.93768 0.225506,-5.01125 v -27.18603 z"
         style="font-style:normal;font-variant:normal;font-weight:normal;font-stretch:normal;font-size:51.31518555px;line-height:1.25;font-family:Impact;-inkscape-font-specification:Impact;letter-spacing:0px;word-spacing:0px;fill:#ff007f;fill-opacity:1;stroke:none;stroke-width:4.27626514"
         id="path851"
         inkscape:connector-curvature="0" />
      <path
         sodipodi:nodetypes="ccscscscccssccsccsccscscscccsccscccsc"
         d="m 132.82336,267.88254 h -8.97013 v -1.80405 c 0,-1.53678 -0.0919,-2.50562 -0.27562,-2.90652 -0.16705,-0.41761 -0.60136,-0.62641 -1.30293,-0.62641 -0.56794,0 -0.9939,0.1921 -1.27787,0.57629 -0.28397,0.36749 -0.42595,0.92708 -0.42595,1.67877 0,1.01895 0.0668,1.77064 0.20045,2.25506 0.15033,0.46772 0.57629,0.98555 1.27787,1.55349 0.71827,0.56794 2.17989,1.3948 4.38484,2.48057 2.93993,1.43656 4.86926,2.7896 5.78799,4.05911 0.91873,1.26951 1.37809,3.11532 1.37809,5.53743 0,2.70607 -0.35079,4.75233 -1.05236,6.13878 -0.70157,1.36974 -1.87922,2.43045 -3.53293,3.18214 -1.63701,0.73499 -3.61645,1.10248 -5.93833,1.10248 -2.57244,0 -4.77739,-0.4009 -6.61485,-1.2027 -1.82075,-0.8018 -3.07356,-1.88757 -3.75843,-3.25731 -0.68487,-1.36975 -1.89624,-3.58073 -1.02731,-6.21395 v -1.6036 h 8.97014 v 2.10472 c 0,1.78735 0.10858,2.94829 0.32573,3.48282 0.23385,0.53453 0.68486,0.8018 1.35303,0.8018 0.71828,0 1.21941,-0.17539 1.50338,-0.52618 0.28397,-0.36749 0.42596,-1.12753 0.42596,-2.28012 0,-1.58689 -0.18375,-2.58079 -0.55124,-2.98169 -0.3842,-0.4009 -2.34694,-1.5869 -5.88822,-3.55799 -2.97334,-1.67041 -4.78574,-3.18214 -5.4372,-4.53518 -0.65147,-1.36974 -0.9772,-2.99004 -0.9772,-4.86091 0,-2.65596 0.35079,-4.61035 1.05236,-5.86316 0.70158,-1.26952 1.88758,-2.24671 3.55799,-2.93158 1.68712,-0.68487 3.64151,-1.02731 5.86316,-1.02731 2.20495,0 4.07582,0.28397 5.6126,0.85192 1.55349,0.55123 2.73948,1.28621 3.55799,2.20494 0.83521,0.91873 1.33633,1.77065 1.50337,2.55574 0.18375,0.78509 -0.16622,2.07234 0.27562,3.68327 z"
         style="font-style:normal;font-variant:normal;font-weight:normal;font-stretch:normal;font-size:51.31518555px;line-height:1.25;font-family:Impact;-inkscape-font-specification:Impact;letter-spacing:0px;word-spacing:0px;fill:#ff007f;fill-opacity:1;stroke:none;stroke-width:4.27626514"
         id="path853"
         inkscape:connector-curvature="0" />
    </g>
    <g
       id="g837"
       transform="matrix(0.76466051,0,0,0.76466051,0.56613611,64.848447)">
      <path
         sodipodi:nodetypes="cccsccsccscssscccc"
         id="path831"
         style="font-style:normal;font-variant:normal;font-weight:normal;font-stretch:normal;font-size:51.31518555px;line-height:1.25;font-family:Impact;-inkscape-font-specification:Impact;letter-spacing:0px;word-spacing:0px;opacity:0.5;fill:#ffffff;fill-opacity:1;stroke:none;stroke-width:4.95371962"
         d="m 14.131999,198.46049 v 10.56535 c 1.006224,-0.92882 2.08985,-1.62544 3.250878,-2.08985 1.180379,-0.46441 2.43816,-0.69661 3.773341,-0.69661 2.05115,0 3.792692,0.52246 5.224627,1.56739 1.451285,1.04493 2.331731,2.25433 2.641339,3.62821 0.328958,1.35453 0.421354,3.84178 0.493437,7.4596 v 26.55853 H 17.789237 v -27.11002 c 0,-2.24465 -0.116103,-3.68626 -0.348309,-4.32483 -0.212855,-0.63856 -0.706291,-0.95784 -1.48031,-0.95784 -0.715967,0 -1.199729,0.32896 -1.451285,0.98687 -0.251556,0.65791 -0.414952,1.96443 -0.377334,3.91847 v 27.48735 H 2.4056146 v -46.99262 z"
         inkscape:connector-curvature="0" />
      <path
         sodipodi:nodetypes="ccscscsccscscscccssccsccsccscscscc"
         id="path833"
         style="font-style:normal;font-variant:normal;font-weight:normal;font-stretch:normal;font-size:51.31518555px;line-height:1.25;font-family:Impact;-inkscape-font-specification:Impact;letter-spacing:0px;word-spacing:0px;opacity:0.5;fill:#ffffff;fill-opacity:1;stroke:none;stroke-width:4.95371962"
         d="M 60.079686,226.87665 H 44.899244 v 8.33038 c 0,1.74154 0.125778,2.86387 0.377334,3.36699 0.251557,0.50311 0.735319,0.75466 1.451286,0.75466 0.890121,0 1.48031,-0.32896 1.770567,-0.98687 0.309607,-0.67727 0.265913,-1.98406 0.464411,-3.88945 v -5.07949 h 11.116844 v 2.84451 c 0,2.38011 -0.154804,4.20873 -0.464411,5.48586 -0.290257,1.27713 -0.986873,2.64134 -2.08985,4.09263 -1.102977,1.45129 -2.505886,2.54458 -4.208727,3.27989 -1.683491,0.71598 -3.802367,1.07397 -6.35663,1.07397 -2.47686,0 -4.663463,-0.35799 -6.559808,-1.07397 -1.896346,-0.71597 -3.376657,-1.69316 -4.440933,-2.93159 -1.044925,-1.25778 -1.770568,-2.63166 -2.176928,-4.12164 -0.406359,-1.50934 -0.609539,-3.69594 -0.609539,-6.55981 v -11.23295 c 0,-3.36699 0.454736,-6.018 1.364207,-7.95305 0.909473,-1.95439 2.399459,-3.44438 4.469959,-4.46995 2.0705,-1.04493 4.450608,-1.56739 7.140323,-1.56739 3.28958,0 5.998646,0.62889 8.127197,1.88667 2.147902,1.23843 3.647563,2.8929 4.498983,4.96339 0.870771,2.05115 1.306157,4.94405 1.306157,8.67869 z M 48.324277,220.6071 v -2.81549 c 0,-1.9931 -0.106428,-3.27991 -0.319283,-3.86042 -0.212855,-0.58051 -0.64824,-0.87077 -1.306157,-0.87077 -0.812719,0 -1.315831,0.25156 -1.509336,0.75467 -0.193505,0.48376 -0.690579,1.84656 -0.290257,3.97652 v 2.81549 z"
         inkscape:connector-curvature="0" />
      <path
         sodipodi:nodetypes="ccccc"
         id="path835"
         style="font-style:normal;font-variant:normal;font-weight:normal;font-stretch:normal;font-size:51.31518555px;line-height:1.25;font-family:Impact;-inkscape-font-specification:Impact;letter-spacing:0px;word-spacing:0px;opacity:0.5;fill:#ffffff;fill-opacity:1;stroke:none;stroke-width:4.95371962"
         d="m 76.014794,198.46049 v 46.99262 H 63.940102 v -46.99262 z"
         inkscape:connector-curvature="0" />
      <path
         sodipodi:nodetypes="ccccc"
         id="path837"
         style="font-style:normal;font-variant:normal;font-weight:normal;font-stretch:normal;font-size:51.31518555px;line-height:1.25;font-family:Impact;-inkscape-font-specification:Impact;letter-spacing:0px;word-spacing:0px;opacity:0.5;fill:#ffffff;fill-opacity:1;stroke:none;stroke-width:4.95371962"
         d="m 92.269186,198.46049 v 46.99262 H 80.194493 v -46.99262 z"
         inkscape:connector-curvature="0" />
      <path
         sodipodi:nodetypes="sscccscccssccscccsscscsscscss"
         id="path839"
         style="font-style:normal;font-variant:normal;font-weight:normal;font-stretch:normal;font-size:51.31518555px;line-height:1.25;font-family:Impact;-inkscape-font-specification:Impact;letter-spacing:0px;word-spacing:0px;opacity:0.5;fill:#ffffff;fill-opacity:1;stroke:none;stroke-width:4.95371962"
         d="m 122.97839,220.46197 v 9.43336 c 0,3.46373 -0.17415,6.00832 -0.52246,7.63375 -0.34831,1.60609 -1.09331,3.11543 -2.23498,4.52801 -1.14168,1.39323 -2.61232,2.42848 -4.41191,3.10575 -1.78025,0.65793 -3.8314,0.98689 -6.15345,0.98689 -2.59297,0 -4.78925,-0.28059 -6.58884,-0.84176 -1.79959,-0.58051 -3.202501,-1.4416 -4.208723,-2.58328 -0.986874,-1.16103 -1.693166,-2.55427 -2.118877,-4.1797 -0.42571,-1.64479 -0.638565,-4.10231 -0.638565,-7.37254 v -9.86873 c 0,-3.57983 0.387009,-6.37598 1.161028,-8.38843 0.774019,-2.01245 2.167251,-3.62821 4.179697,-4.8473 2.01245,-1.21907 4.58607,-1.82861 7.72084,-1.82861 2.63167,0 4.886,0.39669 6.76299,1.19006 1.89635,0.77401 3.35731,1.78991 4.38288,3.04769 1.02558,1.25778 1.7222,2.55426 2.08985,3.88945 0.38701,1.33518 0.58052,3.36698 0.58052,6.09539 z M 111.252,217.55941 c 0,-1.97375 -0.10643,-3.21218 -0.31928,-3.71529 -0.21285,-0.52247 -0.66759,-0.7837 -1.36421,-0.7837 -0.69661,0 -1.16102,0.26123 -1.39323,0.7837 -0.23221,0.50311 -0.34831,1.74154 -0.34831,3.71529 v 17.38639 c 0,1.81894 0.1161,3.00899 0.34831,3.57016 0.23221,0.54181 0.68694,0.81272 1.36421,0.81272 0.69661,0 1.15135,-0.25155 1.3642,-0.75466 0.23221,-0.50312 0.34831,-1.58675 0.34831,-3.25088 z"
         inkscape:connector-curvature="0" />
    </g>
  </g>
</svg>
