<?xml version="1.0" encoding="UTF-8" standalone="no"?>
<svg
   xmlns:dc="http://purl.org/dc/elements/1.1/"
   xmlns:cc="http://creativecommons.org/ns#"
   xmlns:rdf="http://www.w3.org/1999/02/22-rdf-syntax-ns#"
   xmlns:svg="http://www.w3.org/2000/svg"
   xmlns="http://www.w3.org/2000/svg"
   xmlns:sodipodi="http://sodipodi.sourceforge.net/DTD/sodipodi-0.dtd"
   xmlns:inkscape="http://www.inkscape.org/namespaces/inkscape"
   width="512"
   height="128"
   id="svg2"
   version="1.1"
   inkscape:version="1.0.2 (e86c870879, 2021-01-15, custom)"
   sodipodi:docname="icons.svg"
   inkscape:export-filename="/home/gf/Bilder/pongon.png"
   inkscape:export-xdpi="254"
   inkscape:export-ydpi="254">
  <defs
     id="defs4" />
  <sodipodi:namedview
     id="base"
     pagecolor="#000000"
     bordercolor="#666666"
     borderopacity="1.0"
     inkscape:pageopacity="0"
     inkscape:pageshadow="2"
     inkscape:zoom="1.7192038"
     inkscape:cx="232.51851"
     inkscape:cy="69.033216"
     inkscape:document-units="px"
     inkscape:current-layer="text915"
     showgrid="false"
     units="mm"
     inkscape:window-width="1842"
     inkscape:window-height="1057"
     inkscape:window-x="-8"
     inkscape:window-y="-8"
     inkscape:window-maximized="1"
     inkscape:document-rotation="0" />
  <metadata
     id="metadata7">
    <rdf:RDF>
      <cc:Work
         rdf:about="">
        <dc:format>image/svg+xml</dc:format>
        <dc:type
           rdf:resource="http://purl.org/dc/dcmitype/StillImage" />
        <dc:title />
      </cc:Work>
    </rdf:RDF>
  </metadata>
  <g
     inkscape:label="Ebene 1"
     inkscape:groupmode="layer"
     id="layer1"
     transform="translate(0,-201.96851)">
    <g
       aria-label="RETURN!"
       id="text915"
       style="font-style:normal;font-variant:normal;font-weight:normal;font-stretch:normal;font-size:155.568px;line-height:1.25;font-family:sans-serif;-inkscape-font-specification:FreeSans;fill:#000000;fill-opacity:1;stroke:none;stroke-width:3.8892">
      <path
         style="opacity:1;fill:#ffffff;fill-opacity:1;stroke:none;stroke-width:5.03899;stroke-linecap:round;stroke-linejoin:round;stroke-miterlimit:4;stroke-dasharray:none;stroke-opacity:1"
         d="m 83.688032,205.96851 v 40.31195 h 40.311938 v -40.31195 z m 10.077977,5.03899 10.077991,10.07799 10.07799,-10.07799 5.03899,5.03899 -10.07799,10.07799 10.07799,10.07799 -5.03899,5.03899 -10.07799,-10.07798 -10.077991,10.07798 -5.03899,-5.03899 10.077994,-10.07799 -10.077994,-10.07799 z"
         id="rect4527"
         inkscape:connector-curvature="0"
         sodipodi:nodetypes="cccccccccccccccccc" />
      <rect
         style="opacity:0.5;fill:none;fill-opacity:1;stroke:#ffffff;stroke-width:8;stroke-linejoin:round"
         id="rect941"
         width="112"
         height="112"
         x="136"
         y="209.96851"
         ry="12" />
      <g
         aria-label="1"
         id="text945"
         style="font-style:normal;font-variant:normal;font-weight:normal;font-stretch:normal;font-size:106.667px;line-height:1.25;font-family:Impact;-inkscape-font-specification:Impact;fill:#ffffff;fill-opacity:1;stroke:none"
         transform="translate(0,-128)">
        <path
           d="m 205.59671,352.10324 v 84.32318 h -21.04173 v -45.20847 q 0,-9.7917 -0.46875,-11.77087 -0.46875,-1.97918 -2.60418,-2.96876 -2.08334,-1.04167 -9.37503,-1.04167 h -2.08334 v -9.84378 q 15.26047,-3.28126 23.17716,-13.48963 z"
           id="path953" />
      </g>
      <g
         aria-label="2"
         id="text949"
         style="font-style:normal;font-variant:normal;font-weight:normal;font-stretch:normal;font-size:106.667px;line-height:1.25;font-family:Impact;-inkscape-font-specification:Impact;fill:#ffffff;fill-opacity:1;stroke:none"
         transform="translate(0,-128)">
        <path
           d="m 342.56832,422.07631 v 14.37504 h -46.30223 v -12.03128 q 20.57298,-33.64594 24.42716,-41.61472 3.90626,-8.02085 3.90626,-12.50003 0,-3.43752 -1.19792,-5.10419 -1.14583,-1.71875 -3.54167,-1.71875 -2.39585,0 -3.59377,1.875 -1.14583,1.87501 -1.14583,7.44794 v 8.02086 h -18.85423 v -3.07293 q 0,-7.08335 0.72917,-11.14586 0.72917,-4.1146 3.59376,-8.07295 2.86459,-3.95834 7.44794,-5.9896 4.58335,-2.03125 10.98962,-2.03125 12.55212,0 18.95839,6.25002 6.45836,6.19793 6.45836,15.72921 0,7.23961 -3.64585,15.31255 -3.59376,8.07294 -21.30215,34.27094 z"
           id="path956" />
      </g>
      <rect
         style="opacity:0.5;fill:none;fill-opacity:1;stroke:#ffffff;stroke-width:8;stroke-linejoin:round"
         id="rect951"
         width="112"
         height="112"
         x="264"
         y="209.96851"
         ry="12" />
      <g
         inkscape:label="Ebene 1"
         id="layer1-3"
         transform="matrix(2.7272701,0,0,2.7272701,382.54546,200.51367)"
         style="stroke:#ffffff">
        <path
           style="fill:none;stroke:#ffffff;stroke-width:3.66667;stroke-linecap:round;stroke-linejoin:round;stroke-miterlimit:4;stroke-dasharray:none;stroke-opacity:1"
           d="M 16,17 H 5 V 6"
           id="path3590"
           sodipodi:nodetypes="ccc" />
        <path
           sodipodi:type="arc"
           style="fill:none;stroke:#ffffff;stroke-width:3.66667;stroke-linecap:round;stroke-miterlimit:4;stroke-dasharray:none"
           id="path2817"
           sodipodi:cx="24"
           sodipodi:cy="24"
           sodipodi:rx="19"
           sodipodi:ry="19"
           d="M 6.7387593,16.059624 A 19,19 0 0 1 28.305908,5.494348 19,19 0 0 1 42.99354,24.495412 19,19 0 0 1 27.335338,42.70496 19,19 0 0 1 6.3482915,31.029736"
           sodipodi:start="3.5727412"
           sodipodi:end="2.7625986"
           sodipodi:open="true"
           sodipodi:arc-type="arc" />
      </g>
    </g>
  </g>
</svg>
