<?xml version="1.0" encoding="UTF-8" standalone="no"?>
<!-- Created with Inkscape (http://www.inkscape.org/) -->

<svg
   width="256"
   height="256"
   viewBox="0 0 256 256"
   version="1.1"
   id="svg5"
   inkscape:version="1.1.2 (0a00cf5339, 2022-02-04)"
   sodipodi:docname="bro_vs_bro_icon.svg"
   inkscape:export-filename="/home/gf/sync/src/games/arcajs/examples/bro_vs_bro/bro_vs_bro_icon.png"
   inkscape:export-xdpi="192"
   inkscape:export-ydpi="192"
   xmlns:inkscape="http://www.inkscape.org/namespaces/inkscape"
   xmlns:sodipodi="http://sodipodi.sourceforge.net/DTD/sodipodi-0.dtd"
   xmlns="http://www.w3.org/2000/svg"
   xmlns:svg="http://www.w3.org/2000/svg">
  <sodipodi:namedview
     id="namedview7"
     pagecolor="#505050"
     bordercolor="#eeeeee"
     borderopacity="1"
     inkscape:pageshadow="0"
     inkscape:pageopacity="0"
     inkscape:pagecheckerboard="0"
     inkscape:document-units="px"
     showgrid="true"
     units="px"
     width="320px"
     inkscape:snap-grids="false"
     inkscape:zoom="1.3114825"
     inkscape:cx="119.3306"
     inkscape:cy="13.343677"
     inkscape:window-width="1920"
     inkscape:window-height="1031"
     inkscape:window-x="0"
     inkscape:window-y="25"
     inkscape:window-maximized="1"
     inkscape:current-layer="layer1"
     inkscape:snap-page="true"
     inkscape:snap-intersection-paths="true">
    <inkscape:grid
       type="xygrid"
       id="grid824"
       spacingx="4"
       spacingy="4"
       empspacing="4" />
  </sodipodi:namedview>
  <defs
     id="defs2" />
  <g
     inkscape:label="Ebene 1"
     inkscape:groupmode="layer"
     id="layer1">
    <rect
       style="fill:#000000;stroke-width:0"
       id="rect1416"
       width="128"
       height="256.00937"
       x="0"
       y="0" />
    <rect
       style="fill:#ffffff;stroke-width:0"
       id="rect1498"
       width="128"
       height="256"
       x="128"
       y="0" />
    <path
       style="fill:#ffffff;stroke:none;stroke-width:2.6671px;stroke-linecap:butt;stroke-linejoin:miter;stroke-opacity:1"
       d="M 64.015938,32.002278 96.023907,64.004557 H 128.03188 V 32.002278 L 96.023907,2.4001707e-6 H 64.015938 Z"
       id="path2301"
       sodipodi:nodetypes="ccccccc" />
    <rect
       style="fill:#ffffff;stroke:#ffffff;stroke-width:0;stroke-miterlimit:4;stroke-dasharray:none"
       id="rect2882"
       width="64.015938"
       height="53.337124"
       x="2.4005976e-06"
       y="2.4001708e-06" />
    <path
       style="fill:#ffffff;stroke:none;stroke-width:2.6671px;stroke-linecap:butt;stroke-linejoin:miter;stroke-opacity:1"
       d="M 64.015938,96.006831 96.023907,64.004557 H 128.03188 V 96.006831 L 96.023907,128.00911 H 64.015938 Z"
       id="path2920"
       sodipodi:nodetypes="ccccccc" />
    <rect
       style="fill:#ffffff;stroke:#ffffff;stroke-width:0;stroke-miterlimit:4;stroke-dasharray:none"
       id="rect2922"
       width="64.015938"
       height="53.337124"
       x="2.4005976e-06"
       y="-128.00912"
       transform="scale(1,-1)" />
    <path
       style="fill:#ffffff;stroke:none;stroke-width:2.6671px;stroke-linecap:butt;stroke-linejoin:miter;stroke-opacity:1"
       d="m 64.015938,160.01139 32.007969,32.00227 H 128.03188 V 160.01139 L 96.023907,128.00911 H 64.015938 Z"
       id="path2924"
       sodipodi:nodetypes="ccccccc" />
    <rect
       style="fill:#ffffff;stroke:#ffffff;stroke-width:0;stroke-miterlimit:4;stroke-dasharray:none"
       id="rect2926"
       width="64.015938"
       height="53.337124"
       x="2.4005976e-06"
       y="128.00912" />
    <path
       style="fill:#ffffff;stroke:none;stroke-width:2.6671px;stroke-linecap:butt;stroke-linejoin:miter;stroke-opacity:1"
       d="m 64.015938,224.01594 32.007969,-32.00228 h 32.007973 v 32.00228 L 96.023907,256.01823 H 64.015938 Z"
       id="path2928"
       sodipodi:nodetypes="ccccccc" />
    <rect
       style="fill:#ffffff;stroke:#ffffff;stroke-width:0;stroke-miterlimit:4;stroke-dasharray:none"
       id="rect2930"
       width="64.015938"
       height="53.337124"
       x="2.4005976e-06"
       y="-256.01825"
       transform="scale(1,-1)" />
    <path
       style="fill:#000000;stroke:none;stroke-width:2.6671px;stroke-linecap:butt;stroke-linejoin:miter;stroke-opacity:1"
       d="m 192.01592,32.002278 32.00797,32.002289 h 32.00797 V 32.002278 L 224.02389,9.0335386e-6 h -32.00797 z"
       id="path3752"
       sodipodi:nodetypes="ccccccc" />
    <rect
       style="fill:#000000;stroke:#ffffff;stroke-width:0;stroke-miterlimit:4;stroke-dasharray:none"
       id="rect3754"
       width="64.015938"
       height="53.337124"
       x="127.99998"
       y="0" />
    <path
       style="fill:#000000;stroke:none;stroke-width:2.6671px;stroke-linecap:butt;stroke-linejoin:miter;stroke-opacity:1"
       d="m 192.01592,96.006835 32.00797,-32.002268 h 32.00797 V 96.006835 L 224.02389,128.0091 h -32.00797 z"
       id="path3756"
       sodipodi:nodetypes="ccccccc" />
    <rect
       style="fill:#000000;stroke:#ffffff;stroke-width:0;stroke-miterlimit:4;stroke-dasharray:none"
       id="rect3758"
       width="64.015938"
       height="53.337124"
       x="127.99998"
       y="-128.00912"
       transform="scale(1,-1)" />
    <path
       style="fill:#000000;stroke:none;stroke-width:2.6671px;stroke-linecap:butt;stroke-linejoin:miter;stroke-opacity:1"
       d="m 192.01592,160.01139 32.00797,32.00227 h 32.00797 V 160.01139 L 224.02389,128.0091 h -32.00797 z"
       id="path3760"
       sodipodi:nodetypes="ccccccc" />
    <rect
       style="fill:#000000;stroke:#ffffff;stroke-width:0;stroke-miterlimit:4;stroke-dasharray:none"
       id="rect3762"
       width="64.015938"
       height="53.337124"
       x="127.99998"
       y="128.00912" />
    <path
       style="fill:#000000;stroke:none;stroke-width:2.6671px;stroke-linecap:butt;stroke-linejoin:miter;stroke-opacity:1"
       d="m 192.01592,224.01592 32.00797,-32.00226 h 32.00797 v 32.00226 l -32.00797,32.00229 h -32.00797 z"
       id="path3764"
       sodipodi:nodetypes="ccccccc" />
    <rect
       style="fill:#000000;stroke:#ffffff;stroke-width:0;stroke-miterlimit:4;stroke-dasharray:none"
       id="rect3766"
       width="64.015938"
       height="53.337124"
       x="127.99998"
       y="-256.01822"
       transform="scale(1,-1)" />
    <g
       id="g951"
       transform="matrix(2.7510051,0,0,2.7511028,-223.69285,11.765557)">
      <g
         aria-label="V"
         id="text5846"
         style="font-size:40px;line-height:1.25;font-family:'Chilling Sabrina';-inkscape-font-specification:'Chilling Sabrina';fill:#ff0000"
         transform="matrix(1.1111111,0,0,1.1111111,-245.33333,-7.5555564)">
        <path
           d="m 341.63705,21.163364 h 0.3125 v 0.15625 l -2.05078,2.96875 v 0.3125 l 1.89453,-1.875 v 0.3125 l -1.89453,2.65625 v 0.15625 h 0.46875 v 0.46875 c -0.44271,0 -0.91146,0.78125 -1.40625,2.34375 l 0.15625,0.78125 -0.46875,0.78125 v 0.15625 h 0.3125 v 0.46875 l -0.3125,0.46875 v 0.15625 l 0.46875,0.625 v 0.3125 l -0.3125,0.9375 c 0.3125,0 0.46875,0.15625 0.46875,0.46875 l -0.3125,1.25 h 0.3125 v 0.15625 c -0.23437,0.651042 -0.97005,1.640625 -2.20703,2.96875 l -1.25,1.71875 0.15625,0.15625 h 0.15625 l 0.46875,-0.15625 v 0.15625 c -2.85156,3.359375 -5.67708,7.389323 -8.47656,12.089844 -0.70313,1.354167 -1.22396,2.03125 -1.5625,2.03125 l -0.80078,-0.15625 -1.09375,0.78125 h -1.5625 c -1.05469,-0.46875 -1.58203,-1.25 -1.58203,-2.34375 -0.625,-0.963541 -1.40625,-3.899739 -2.34375,-8.808594 -0.96558,-4.857527 -0.60397,-2.490738 -1.4219,-6.907555 -0.78126,-0.104166 -1.17188,-0.03906 -1.17188,0.195313 h -0.15625 l 0.23438,-0.820313 h 0.15625 l -0.15625,-0.15625 v -0.15625 c 0,-2.109374 0.67708,-3.411458 2.03125,-3.90625 l 2.03125,0.371094 c 0.72916,0.416667 1.09375,0.833334 1.09375,1.25 0.41666,5.182292 0.67971,6.67318 1.7344,10.970055 l 0.85937,2.421875 2.03125,-3.4375 2.03125,-3.4375 2.51953,-4.375 3.45703,-4.53125 c 4.12761,-5.898437 6.52344,-9.121094 7.1875,-9.667969 z m -3.92578,17.128907 v 0.175781 l -1.48437,1.972656 v -0.488281 c 0.24739,0 0.64453,-0.494792 1.1914,-1.484375 l 0.15625,-0.175781 z"
           id="path9866"
           sodipodi:nodetypes="cccccccccccccccccccccccccccccccccccccccccccccscccccccccccccccccc" />
      </g>
      <g
         aria-label="S"
         id="text6702"
         style="font-size:33.9933px;line-height:1.25;font-family:'Chilling Sabrina';-inkscape-font-specification:'Chilling Sabrina';fill:#ff0000;stroke-width:0.849833"
         transform="matrix(1.1111111,0,0,1.1111111,-245.33333,-7.5555564)">
        <path
           d="m 352.73511,37.355189 h 1.26147 q 0,0.398359 -1.54364,0.912906 l -0.54775,0.132787 v 0.265572 l 0.9793,-0.132786 h 1.11209 v 0.132786 l -2.65573,1.045693 v 0.265573 l 0.56434,0.132786 v 0.132786 l -1.12868,0.265573 v 0.265573 l 1.12868,0.38176 v 0.132787 q -1.49384,0.398359 -8.84688,1.311265 -0.11619,0.215777 -2.65573,0.663931 -1.11209,0.713727 -1.54364,1.444052 v 0.248974 q 0,0.597539 3.78441,0.929504 h 2.52294 q 5.47743,0 7.15386,1.045693 1.26147,0 2.52294,3.153675 v 0.912906 l -0.18258,1.145282 q -0.16598,0.746923 -0.79672,1.344462 -5.29485,6.274154 -11.91757,12.598103 h -0.14938 q -0.49795,-0.398359 -0.9793,-0.398359 l -1.11209,1.178479 v -0.248974 l -0.84651,-0.796718 h -0.41496 q 0,0.348564 -2.39015,1.178478 0,0.398359 -0.56435,0.398359 l 0.43156,-1.045692 v -0.132786 h -0.28217 v 0.265572 h -0.28217 q 0,-0.58094 2.24077,-4.332154 l 2.52294,-3.419248 q 5.42764,-5.626821 8.13316,-7.137265 v -0.265573 q -9.41123,0.331966 -13.31183,-1.244872 v -0.132786 l 0.41496,-0.531145 q -1.54364,-1.344462 -1.54364,-3.668223 V 44.44266 q 0.53114,-2.805111 2.24077,-4.066581 2.50634,-1.610035 8.41533,-2.24077 h 0.41496 q 3.96699,0 7.85099,-0.78012 z"
           id="path9869" />
      </g>
    </g>
  </g>
</svg>
